<?xml version="1.0" encoding="UTF-8"?>
<svg xmlns="http://www.w3.org/2000/svg" width="8.5in" height="12in" viewBox="0 0 612 864">
  <title>Ten Kings Label V1 Cricut cut geometry</title>
  <desc>Provisional 2 column by 8 row cut paths. Physical Cricut calibration is required.</desc>
  <g id="cut-paths" fill="none" stroke="#000000" stroke-width="0.25">
  <rect id="slot-1" x="72" y="72" width="196.56" height="59.76" rx="0" ry="0"/>
  <rect id="slot-2" x="343.44" y="72" width="196.56" height="59.76" rx="0" ry="0"/>
  <rect id="slot-3" x="72" y="166.32" width="196.56" height="59.76" rx="0" ry="0"/>
  <rect id="slot-4" x="343.44" y="166.32" width="196.56" height="59.76" rx="0" ry="0"/>
  <rect id="slot-5" x="72" y="260.64" width="196.56" height="59.76" rx="0" ry="0"/>
  <rect id="slot-6" x="343.44" y="260.64" width="196.56" height="59.76" rx="0" ry="0"/>
  <rect id="slot-7" x="72" y="354.96" width="196.56" height="59.76" rx="0" ry="0"/>
  <rect id="slot-8" x="343.44" y="354.96" width="196.56" height="59.76" rx="0" ry="0"/>
  <rect id="slot-9" x="72" y="449.28" width="196.56" height="59.76" rx="0" ry="0"/>
  <rect id="slot-10" x="343.44" y="449.28" width="196.56" height="59.76" rx="0" ry="0"/>
  <rect id="slot-11" x="72" y="543.6" width="196.56" height="59.76" rx="0" ry="0"/>
  <rect id="slot-12" x="343.44" y="543.6" width="196.56" height="59.76" rx="0" ry="0"/>
  <rect id="slot-13" x="72" y="637.92" width="196.56" height="59.76" rx="0" ry="0"/>
  <rect id="slot-14" x="343.44" y="637.92" width="196.56" height="59.76" rx="0" ry="0"/>
  <rect id="slot-15" x="72" y="732.24" width="196.56" height="59.76" rx="0" ry="0"/>
  <rect id="slot-16" x="343.44" y="732.24" width="196.56" height="59.76" rx="0" ry="0"/>
  </g>
  <g id="calibration-marks"><path d="M 64 72 H 80 M 72 64 V 80 M 532 792 H 548 M 540 784 V 800"/><text x="306" y="42" text-anchor="middle">CALIBRATION ONLY - PROVISIONAL</text></g>
</svg>